<svg xmlns="http://www.w3.org/2000/svg" width="512" height="507.87" viewBox="0 0 512 507.87">
  <g id="linkedin" transform="translate(0 -2.065)">
    <path id="Caminho_3" data-name="Caminho 3" d="M7.813,509.935H140.384V161.322H7.813Zm30-318.613h72.571V479.934H37.813Z" fill="#fff"/>
    <path id="Caminho_4" data-name="Caminho 4" d="M74.1,2.065a74.1,74.1,0,1,0,74.1,74.1,74.183,74.183,0,0,0-74.1-74.1ZM30,76.164a44.1,44.1,0,1,1,44.1,44.1A44.149,44.149,0,0,1,30,76.164Z" fill="#fff"/>
    <path id="Caminho_5" data-name="Caminho 5" d="M511.679,270.79c-4.718-67.855-61.318-120.144-131.489-120.144a131.793,131.793,0,0,0-84.361,30.274v-19.6H168.8V509.933H301.371V319.269a38.969,38.969,0,1,1,77.939.009l.128,190.656H512V271.112ZM271.371,479.935H198.8V191.321h67.029v42.847l24.005.138,4.46-6.924a101.711,101.711,0,0,1,85.9-46.735c55.836,0,100.543,42.6,101.78,96.985l.03,202.3H409.418l-.108-160.666a68.969,68.969,0,1,0-137.939,0Z" fill="#fff"/>
  </g>
</svg>
