<svg xmlns="http://www.w3.org/2000/svg" width="636.938" height="640" viewBox="0 0 636.938 640">
  <path id="whatsapp" d="M544.387,93.008A315.079,315.079,0,0,0,320.051,0C145.246,0,2.981,142.262,2.91,317.113A316.569,316.569,0,0,0,45.242,475.664L.25,640l168.121-44.1a316.8,316.8,0,0,0,151.551,38.6h.133c174.785,0,317.066-142.273,317.133-317.133a315.186,315.186,0,0,0-92.8-224.359ZM320.051,580.942h-.109A263.265,263.265,0,0,1,185.782,544.2l-9.621-5.715L76.395,564.657l26.629-97.27-6.27-9.973a262.938,262.938,0,0,1-40.3-140.281c.055-145.332,118.305-263.57,263.7-263.57A263.635,263.635,0,0,1,583.644,317.348c-.062,145.344-118.3,263.594-263.594,263.594ZM464.637,383.524c-7.922-3.969-46.883-23.133-54.148-25.781s-12.547-3.961-17.824,3.969-20.469,25.781-25.094,31.066-9.242,5.953-17.168,1.984-33.457-12.336-63.727-39.332c-23.555-21.012-39.457-46.961-44.082-54.891s-.039-11.812,3.477-16.172c8.578-10.652,17.168-21.82,19.809-27.105s1.32-9.918-.664-13.883-17.824-42.969-24.426-58.84c-6.437-15.445-12.965-13.359-17.832-13.6-4.617-.23-9.9-.277-15.187-.277s-13.867,1.98-21.133,9.918-27.73,27.1-27.73,66.105,28.395,76.684,32.355,81.973S247.141,413.985,326.629,448.3A453.57,453.57,0,0,0,371.8,465c18.984,6.031,36.254,5.18,49.91,3.141,15.227-2.277,46.879-19.172,53.488-37.68s6.6-34.375,4.617-37.684-7.262-5.285-15.184-9.254Zm0,0" transform="translate(-0.25)" fill="#fff" fill-rule="evenodd"/>
</svg>
